<svg xmlns="http://www.w3.org/2000/svg" viewBox="0 0 100 100">
  <rect width="100" height="100" rx="20" fill="#1B3C28"/>
  <g transform="translate(12, 18)">
    <path d="M12 22h40a4 4 0 0 1 4 4v24a20 20 0 0 1-20 20H28a20 20 0 0 1-20-20V26a4 4 0 0 1 4-4z" fill="none" stroke="#E8872B" stroke-width="3.5"/>
    <path d="M56 30h4a8 8 0 0 1 0 16h-4" fill="none" stroke="#E8872B" stroke-width="3.5"/>
    <path d="M26 6c0 0 2-5 0-10" stroke="#6BAF82" stroke-width="3" stroke-linecap="round"/>
    <path d="M34 8c0 0 2-5 0-10" stroke="#6BAF82" stroke-width="3" stroke-linecap="round"/>
    <path d="M42 6c0 0 2-5 0-10" stroke="#6BAF82" stroke-width="3" stroke-linecap="round"/>
  </g>
</svg>
